<?xml version="1.0" encoding="utf-8"?>
<!-- Generator: Adobe Illustrator 18.0.0, SVG Export Plug-In . SVG Version: 6.00 Build 0)  -->
<!DOCTYPE svg PUBLIC "-//W3C//DTD SVG 1.1//EN" "http://www.w3.org/Graphics/SVG/1.1/DTD/svg11.dtd">
<svg version="1.1" id="Layer_1" xmlns="http://www.w3.org/2000/svg" xmlns:xlink="http://www.w3.org/1999/xlink" x="0px" y="0px"
	 viewBox="0 255.8 1024 512.4" enable-background="new 0 255.8 1024 512.4" xml:space="preserve">
<g>
	<path fill="#FFFFFF" d="M851.6,396.2c-0.6,0-0.9,0-1.5-0.3C850.6,396.2,851.2,396.2,851.6,396.2z"/>
	<path fill="#FFFFFF" d="M90.2,297.8H7v416.3h97.8c51.2,0,86.8-15.2,107.2-45.4c20.4-30.1,30.5-85.2,30.5-164.8
		c0-78.3-10.1-132.2-30.5-161.7C191.6,312.8,151.1,297.8,90.2,297.8z M145,648.1c-7.3,14-20.4,20.7-39.3,20.7H90.8V343.5h14.9
		c19.2,0,32.3,11.9,39.6,35.3s10.9,66.7,10.9,129.5C155.9,587.5,152.3,634.1,145,648.1z"/>
	<rect x="258.6" y="298.2" fill="#FFFFFF" width="78.6" height="72.8"/>
	<rect x="258.6" y="395.3" fill="#FFFFFF" width="78.6" height="318.9"/>
	<path fill="#FFFFFF" d="M469,534.2c-25-21.9-39.9-36.9-44.8-45.1c-4.9-8.2-7.3-16.5-7.3-25.3c0-7.3,2.1-12.8,6.4-16.7
		c4.3-3.9,9.5-5.8,15.9-5.8c7.6,0,13.4,3.1,17.7,8.9c4.3,5.8,6.4,13.7,6.4,23.1H526c0-26.2-7.6-46.6-22.5-60.9
		c-14.9-14.3-36.5-21.3-64.9-21.3c-26.5,0-47.8,7-64,20.7c-16.1,14-24.4,32.6-24.4,56.1c0,22.5,3.3,41.4,9.7,56.7
		c6.4,15.2,21.6,33.2,45.7,54.2c18.9,16.1,32.6,28.9,40.8,37.8c8.2,8.9,12.5,17.1,12.5,24.7c0,8.2-1.8,14.3-5.8,18.6
		c-3.9,4.3-9.7,6.1-17.7,6.1c-8.2,0-14.3-2.7-18.6-7.9s-6.4-13.7-6.4-25.3h-63.7c0,28,7.6,49.3,22.9,63.3c15.2,14,37.8,21,67.9,21
		c28,0,49.9-7.6,66-22.5c16.1-14.9,24.1-35.9,24.1-63.1c0-17.3-4.3-33.2-12.8-47.2C506.2,570.2,491.3,553.7,469,534.2z"/>
	<path fill="#FFFFFF" d="M805,561c0-25.9,21-46.9,46.9-46.9l0,0c25.9,0,46.9,21,46.9,46.9l0,0c0,25.9-21,46.9-46.9,46.9l0,0
		C826,607.9,805,586.9,805,561L805,561z M807.1,561c0,24.7,20.1,44.8,44.8,44.8l0,0c24.7,0,44.8-20.1,44.8-44.8l0,0
		c0-24.7-20.1-44.8-44.8-44.8l0,0C826.9,516.2,807.1,536.4,807.1,561L807.1,561z"/>
	<path fill="#FFFFFF" d="M859.2,561c0,3.9-3.3,7.3-7.3,7.3s-7.3-3.3-7.3-7.3c0-3.9,3.3-7.3,7.3-7.3C855.9,553.7,859.2,557,859.2,561
		z"/>
	<path fill="#FFFFFF" d="M692.3,635h-29.5c-1.2,13.7-3.3,22.5-6.7,26.8c-3.3,4.3-8.5,6.1-15.5,6.1c-11.3,0-18.6-6.7-21.6-19.8
		c-3.3-13.1-4.9-44.5-4.9-94.1c0-42.9,1.5-72.4,4.3-88.9c2.7-16.5,10.1-24.7,21.3-24.7c6.7,0,11.6,2.7,14.3,8.5
		c2.7,5.8,4.3,18.3,4.3,37.8h34.4c7.6-15.9,17.1-30.5,28.9-43.3c-3.7-11.3-9.5-21-16.7-28.6c-15.2-15.9-37.1-23.7-65.5-23.7
		c-35.7,0-62.5,13.7-80.1,41.1c-17.7,27.4-26.5,67.8-26.5,121.8c0,54.2,8.5,95.1,25.6,122.1c17.1,27.4,42.1,41.1,75.3,41.1
		c29.3,0,51.2-6.7,65.8-20.1c7.3-6.7,12.5-14.9,16.1-25.3C706.3,660.6,698.7,648.1,692.3,635z"/>
	<g>
		<path fill="none" d="M851.9,499.7c-33.8,0-61.2,27.4-61.2,61.2c0,17.3,7.3,32.9,18.6,43.9c0,0,0,0-0.3-0.3l-15.9,17.3
			c5.5,5.5,11.9,10.1,18.6,13.7l11.6-20.4l0,0c8.5,4.6,18.3,7,28.3,7c33.8,0,60.9-27.4,60.9-61.2c0-16.5-6.4-31.1-16.7-42.1
			l16.1-17.3c-5.5-5.5-11.6-10.3-18.3-14.3l-11.3,20.7C873.2,502.8,862.8,499.7,851.9,499.7z"/>
		<path fill="none" d="M773,643.8l-16.1,17.7c8.5,8.2,18.3,15.2,28.9,21l11.9-21C788.3,656.6,780.3,650.8,773,643.8z"/>
		<path fill="none" d="M932.3,479.7l16.1-17.7c-8.9-8.5-18.6-15.9-29.3-21.9l-11.6,21C916.8,466.3,925,472.7,932.3,479.7z"/>
		<path fill="none" d="M914,499.5l16.1-17.3c-7-7-14.9-13.1-23.7-18l-11.6,20.7C902.2,488.8,908.5,493.7,914,499.5z"/>
		<path fill="none" d="M791.3,624l-16.1,17.3c7,6.7,14.9,12.5,23.7,17.3l11.6-20.7C803.5,634.4,796.8,629.5,791.3,624z"/>
		<path fill="#FFFFFF" d="M767.2,561c0,24.1,10.1,45.4,25.9,60.9l15.9-17.3c0,0,0,0,0.3,0.3c-11.6-10.9-18.6-26.5-18.6-43.9
			c0-33.8,27.4-61.2,61.2-61.2c11.3,0,21.6,3.1,30.5,8.2l11.3-20.7c-12.5-7-26.5-10.9-41.7-10.9C805.3,476.3,767.2,514.4,767.2,561z
			"/>
		<path fill="#FFFFFF" d="M912.8,561c0,33.8-27.4,61.2-60.9,61.2c-10.3,0-19.8-2.5-28.3-7l0,0l-11.6,20.4
			c11.9,6.4,25.6,10.1,39.9,10.1c46.6,0,84.7-38.1,84.7-84.7c0-23.1-9.5-44.2-24.4-59.4L896,518.9C906.4,530,912.8,544.5,912.8,561z
			"/>
		<path fill="#FFFFFF" d="M740.4,561c0,31.7,13.4,60.3,34.7,80.7l16.1-17.3c-16.7-15.9-27.1-38.4-27.1-63.1
			c0-48.4,39.3-87.7,87.7-87.7c15.9,0,30.5,4.3,43.3,11.6l11.6-20.7c-16.1-9.1-34.7-14.3-54.8-14.3
			C790.4,449.5,740.4,499.5,740.4,561z"/>
		<path fill="#FFFFFF" d="M939.3,561c0,48.4-39.3,87.7-87.7,87.7c-14.9,0-28.9-3.7-41.4-10.3l-11.6,20.7c15.9,8.5,33.8,13.4,53,13.4
			c61.5,0,111.4-49.9,111.4-111.4c0-30.7-12.5-58.8-32.9-78.8L914,499.6C929.8,515.3,939.3,536.9,939.3,561z"/>
		<path fill="#FFFFFF" d="M966.1,561c0,63.1-51.5,114.5-114.5,114.5c-19.8,0-38.4-4.9-54.5-13.7l-11.9,21
			c19.8,10.7,42.3,17.1,66.4,17.1c76.5,0,138.2-62.1,138.2-138.2c0-38.7-15.9-73.7-41.4-98.6l-16.1,17.7
			C953.3,500.3,966.1,529.3,966.1,561z"/>
		<path fill="#FFFFFF" d="M713.3,561c0,39.6,16.7,75.3,43.3,100.5l16.1-17.7c-21.9-20.7-35.7-50.3-35.7-82.9
			c0-63.1,51.5-114.5,114.5-114.5c20.4,0,39.6,5.5,56.1,14.9l11.6-21c-20.1-11.3-43.3-17.7-67.6-17.7
			C775.5,422.4,713.3,484.6,713.3,561z"/>
		<path fill="#FFFFFF" d="M966.7,442.8l-15.9,17.1c26.2,25.6,42.7,61.5,42.7,100.8c0,78-63.3,141.3-141.3,141.3
			c-24.7,0-47.5-6.4-67.6-17.3l-11.9,21c23.5,12.8,50.5,20.4,79.2,20.4c91.1,0,165-74,165-165C1016.6,514.7,997.5,472.9,966.7,442.8
			z"/>
		<path fill="#FFFFFF" d="M710.3,561c0-78,63.3-141.3,141.3-141.3c25,0,48.7,6.7,69.1,18.3l11.3-20.4c-23.1-13.1-49.7-20.7-78-21
			h-2.7c-90.8,0-164.2,73.1-165,163.6l0,0v1.5c0,47.2,20.1,89.9,52.1,120l16.5-17.7C727.3,637.7,710.3,601.5,710.3,561z"/>
	</g>
</g>
</svg>
